<svg xmlns="http://www.w3.org/2000/svg" xmlns:xlink="http://www.w3.org/1999/xlink" version="1.1" x="0px" y="0px" viewBox="0 0 100 125" style="enable-background:new 0 0 100 100;" xml:space="preserve"><style type="text/css">
	.st0{fill:none;stroke:#000000;stroke-width:2;stroke-linecap:round;stroke-linejoin:round;stroke-miterlimit:10;}
</style><path d="M79.4,10.9H20.6c-0.6,0-1,0.4-1,1v76.9c0,0.6,0.4,1,1,1h46c0.1,0,0.2,0,0.3-0.1c0.1,0,0.2,0.1,0.3,0.1  c0.3,0,0.5-0.1,0.7-0.3l12.3-12.3c0.3-0.3,0.3-0.6,0.2-1c0-0.1,0-0.1,0-0.2V11.9C80.4,11.4,80,10.9,79.4,10.9z M67.1,75.5  c-0.6,0-1,0.4-1,1v11.3H21.6V12.9h56.8v62.6H67.1z M68.1,86.4v-8.9H77L68.1,86.4z"/><path d="M30.1,33h39.3c0.6,0,1-0.4,1-1s-0.4-1-1-1H30.1c-0.6,0-1,0.4-1,1S29.6,33,30.1,33z"/><path d="M69.5,39.9H30.1c-0.6,0-1,0.4-1,1s0.4,1,1,1h39.3c0.6,0,1-0.4,1-1S70,39.9,69.5,39.9z"/><path d="M69.5,48.8H30.1c-0.6,0-1,0.4-1,1s0.4,1,1,1h39.3c0.6,0,1-0.4,1-1S70,48.8,69.5,48.8z"/><path d="M69.5,57.7H30.1c-0.6,0-1,0.4-1,1s0.4,1,1,1h39.3c0.6,0,1-0.4,1-1S70,57.7,69.5,57.7z"/><path d="M69.5,66.6H30.1c-0.6,0-1,0.4-1,1s0.4,1,1,1h39.3c0.6,0,1-0.4,1-1S70,66.6,69.5,66.6z"/><text x="0" y="115" fill="#000000" font-size="5px" font-weight="bold" font-family="'Helvetica Neue', Helvetica, Arial-Unicode, Arial, Sans-serif">Created by Made</text><text x="0" y="120" fill="#000000" font-size="5px" font-weight="bold" font-family="'Helvetica Neue', Helvetica, Arial-Unicode, Arial, Sans-serif">from the Noun Project</text></svg>